<svg width="24" height="24" viewBox="0 0 24 24" fill="none" xmlns="http://www.w3.org/2000/svg">
<path fill-rule="evenodd" clip-rule="evenodd" d="M12.3417 20.9997C13.9059 20.9972 15.0442 20.9772 15.7567 20.9397C16.5201 20.8996 17.183 20.7857 17.7455 20.5982C18.4152 20.3571 18.9978 19.9888 19.4933 19.4933C19.9888 18.9978 20.3571 18.4152 20.5982 17.7455C20.7857 17.183 20.8996 16.5201 20.9397 15.7567C20.9799 14.9933 21 13.7411 21 12L20.9993 11.33C20.9962 9.9356 20.983 8.91339 20.9598 8.26339C20.9062 7.48661 20.7857 6.81696 20.5982 6.25446C20.3571 5.58482 19.9888 5.00223 19.4933 4.5067C18.9978 4.01116 18.4152 3.64286 17.7455 3.40179C17.183 3.21429 16.5201 3.10045 15.7567 3.06027C14.9933 3.02009 13.7411 3 12 3L11.6583 3.00027C10.0941 3.00277 8.9558 3.02277 8.2433 3.06027C7.47991 3.10045 6.81696 3.21429 6.25446 3.40179C5.58482 3.64286 5.00223 4.01116 4.5067 4.5067C4.01116 5.00223 3.64286 5.58482 3.40179 6.25446C3.21429 6.81696 3.10045 7.47991 3.06027 8.2433C3.02009 9.0067 3 10.2589 3 12L3.00027 12.3417C3.00277 13.9059 3.02277 15.0442 3.06027 15.7567C3.10045 16.5201 3.21429 17.183 3.40179 17.7455C3.64286 18.4152 4.01116 18.9978 4.5067 19.4933C5.00223 19.9888 5.58482 20.3438 6.25446 20.558C6.81696 20.7723 7.47991 20.8996 8.2433 20.9397C9.0067 20.9799 10.2589 21 12 21L12.3417 20.9997ZM12.9641 19.3922L11.0087 19.3922C10.104 19.3895 9.38967 19.3763 8.86586 19.3525C7.87479 19.2989 7.15158 19.1918 6.69622 19.031C5.89265 18.7096 5.31676 18.1337 4.96854 17.3034C4.80783 16.848 4.70068 16.1248 4.64711 15.1337C4.62033 14.5444 4.60693 13.7141 4.60693 12.6426L4.60743 11.0087C4.61008 10.104 4.6233 9.38967 4.64711 8.86586C4.70068 7.848 4.80783 7.12479 4.96854 6.69622C5.28997 5.86586 5.86586 5.28997 6.69622 4.96854C7.15158 4.80783 7.87479 4.70068 8.86586 4.64711C9.45515 4.62033 10.2855 4.60693 11.3569 4.60693H12.6426C13.7141 4.60693 14.5444 4.62033 15.1337 4.64711C16.1516 4.70068 16.8748 4.80783 17.3034 4.96854C18.1337 5.28997 18.7096 5.86586 19.031 6.69622C19.1918 7.12479 19.2989 7.848 19.3525 8.86586C19.3793 9.42836 19.3926 10.2587 19.3926 11.3569V12.6426C19.3926 13.7141 19.3793 14.5444 19.3525 15.1337C19.2989 16.1248 19.1918 16.848 19.031 17.3034C18.7096 18.1069 18.1337 18.6828 17.3034 19.031C16.8748 19.1918 16.1516 19.2989 15.1337 19.3525C14.5712 19.3793 13.7409 19.3926 12.6426 19.3926L12.9641 19.3922ZM16.8216 8.26339C17.1163 8.26339 17.364 8.15625 17.5649 7.94196C17.7658 7.72768 17.8797 7.47321 17.9065 7.17857C17.9065 6.88393 17.7993 6.62946 17.585 6.41518C17.3707 6.20089 17.1163 6.09375 16.8216 6.09375C16.527 6.09375 16.2725 6.20089 16.0582 6.41518C15.844 6.62946 15.7368 6.88393 15.7368 7.17857C15.7368 7.47321 15.844 7.72768 16.0582 7.94196C16.2725 8.15625 16.527 8.26339 16.8216 8.26339ZM12.0004 16.6205C12.8308 16.6205 13.6009 16.4129 14.3107 15.9977C15.0205 15.5825 15.583 15.02 15.9982 14.3102C16.4134 13.6004 16.621 12.8303 16.621 11.9999C16.621 11.1696 16.4134 10.3995 15.9982 9.68966C15.583 8.97984 15.0205 8.41734 14.3107 8.00216C13.6009 7.58698 12.8308 7.37939 12.0004 7.37939C11.1701 7.37939 10.4 7.58698 9.69015 8.00216C8.98033 8.41734 8.41783 8.97984 8.00265 9.68966C7.58747 10.3995 7.37988 11.1696 7.37988 11.9999C7.37988 12.8303 7.58747 13.6004 8.00265 14.3102C8.41783 15.02 8.98033 15.5825 9.69015 15.9977C10.4 16.4129 11.1701 16.6205 12.0004 16.6205ZM12.0002 15.0136C11.1699 15.0136 10.46 14.719 9.87074 14.1297C9.28146 13.5404 8.98682 12.8306 8.98682 12.0002C8.98682 11.1699 9.28146 10.46 9.87074 9.87074C10.46 9.28146 11.1699 8.98682 12.0002 8.98682C12.8306 8.98682 13.5404 9.28146 14.1297 9.87074C14.719 10.46 15.0136 11.1699 15.0136 12.0002C15.0136 12.8306 14.719 13.5404 14.1297 14.1297C13.5404 14.719 12.8306 15.0136 12.0002 15.0136Z" fill="#C9C6C2"/>
</svg>
