<svg width="24" height="24" viewBox="0 0 24 24" fill="none" xmlns="http://www.w3.org/2000/svg">
<path fill-rule="evenodd" clip-rule="evenodd" d="M12.5 20L16.3333 19.9583C19.0293 19.875 20.7424 19.7361 21.4725 19.5417C21.978 19.4028 22.4133 19.1528 22.7784 18.7917C23.1435 18.4306 23.3962 18.0139 23.5366 17.5417C23.7332 16.7917 23.8736 15.6389 23.9579 14.0833L24 12L23.9579 9.91667C23.8736 8.38889 23.7332 7.25 23.5366 6.5C23.3962 6 23.1435 5.56944 22.7784 5.20833C22.4133 4.84722 21.978 4.59722 21.4725 4.45833C20.7424 4.26389 19.0293 4.125 16.3333 4.04167L12.5 4L8.66667 4.04167C5.9707 4.125 4.25763 4.26389 3.52747 4.45833C3.02198 4.59722 2.58669 4.84722 2.22161 5.20833C1.85653 5.56944 1.60378 6 1.46337 6.5C1.26679 7.25 1.12637 8.38889 1.04212 9.91667C1.01404 10.6944 1 11.3889 1 12L1.04212 14.0833C1.12637 15.6389 1.26679 16.7917 1.46337 17.5417C1.60378 18.0139 1.85653 18.4306 2.22161 18.7917C2.58669 19.1528 3.02198 19.4028 3.52747 19.5417C4.25763 19.7361 5.9707 19.875 8.66667 19.9583L12.5 20ZM10.141 15.4167V8.625L16.1648 12L10.141 15.4167Z" fill="#C9C6C2"/>
</svg>
