<svg width="14" height="14" viewBox="0 0 14 14" fill="none" xmlns="http://www.w3.org/2000/svg">
<g clip-path="url(#clip0_1_251)">
<path d="M5.88002 6.33508C5.90919 6.14258 5.97335 5.97341 6.05502 5.82758C6.13669 5.68175 6.25335 5.55925 6.39919 5.46591C6.53919 5.37841 6.71419 5.33758 6.93002 5.33175C7.06419 5.33758 7.18669 5.36091 7.29752 5.40758C7.41419 5.46008 7.51919 5.53008 7.60085 5.61758C7.68252 5.70508 7.74669 5.81008 7.79919 5.92675C7.85169 6.04341 7.87502 6.17175 7.88085 6.30008H8.92502C8.91335 6.02591 8.86085 5.77508 8.76169 5.54758C8.66252 5.32008 8.52835 5.12175 8.35335 4.95841C8.17835 4.79508 7.96835 4.66675 7.72335 4.57341C7.47835 4.48008 7.21002 4.43925 6.91252 4.43925C6.53335 4.43925 6.20085 4.50341 5.92085 4.63758C5.64085 4.77175 5.40752 4.94675 5.22085 5.17425C5.03419 5.40175 4.89419 5.66425 4.80669 5.96758C4.71919 6.27091 4.66669 6.58591 4.66669 6.92425V7.08175C4.66669 7.42008 4.71335 7.73508 4.80085 8.03841C4.88835 8.34175 5.02835 8.60425 5.21502 8.82591C5.40169 9.04758 5.63502 9.22841 5.91502 9.35675C6.19502 9.48508 6.52752 9.55508 6.90669 9.55508C7.18085 9.55508 7.43752 9.50841 7.67669 9.42091C7.91585 9.33341 8.12585 9.21091 8.30669 9.05341C8.48752 8.89591 8.63335 8.71508 8.73835 8.50508C8.84335 8.29508 8.90752 8.07341 8.91335 7.83425H7.86919C7.86335 7.95675 7.83419 8.06758 7.78169 8.17258C7.72919 8.27758 7.65919 8.36508 7.57169 8.44091C7.48419 8.51675 7.38502 8.57508 7.26835 8.61591C7.15752 8.65675 7.04085 8.66841 6.91835 8.67425C6.70835 8.66841 6.53335 8.62758 6.39919 8.54008C6.25335 8.44675 6.13669 8.32425 6.05502 8.17841C5.97335 8.03258 5.90919 7.85758 5.88002 7.66508C5.85085 7.47258 5.83335 7.27425 5.83335 7.08175V6.92425C5.83335 6.72008 5.85085 6.52758 5.88002 6.33508ZM7.00002 1.16675C3.78002 1.16675 1.16669 3.78008 1.16669 7.00008C1.16669 10.2201 3.78002 12.8334 7.00002 12.8334C10.22 12.8334 12.8334 10.2201 12.8334 7.00008C12.8334 3.78008 10.22 1.16675 7.00002 1.16675ZM7.00002 11.6667C4.42752 11.6667 2.33335 9.57258 2.33335 7.00008C2.33335 4.42758 4.42752 2.33341 7.00002 2.33341C9.57252 2.33341 11.6667 4.42758 11.6667 7.00008C11.6667 9.57258 9.57252 11.6667 7.00002 11.6667Z" fill="#C9C6C2"/>
</g>
<defs>
<clipPath id="clip0_1_251">
<rect width="14" height="14" fill="white"/>
</clipPath>
</defs>
</svg>
