<svg width="24" height="24" viewBox="0 0 24 24" fill="none" xmlns="http://www.w3.org/2000/svg">
<path fill-rule="evenodd" clip-rule="evenodd" d="M8.28906 20C10.6849 20 12.8073 19.3974 14.6562 18.1923C16.349 17.1154 17.6641 15.6667 18.6016 13.8462C19.513 12.1282 19.9688 10.3462 19.9688 8.5C19.9688 8.26923 19.9557 8.10256 19.9297 8C20.737 7.41026 21.4271 6.70513 22 5.88462C21.2188 6.21795 20.4375 6.4359 19.6562 6.53846C20.5417 6 21.1406 5.25641 21.4531 4.30769C20.6458 4.76923 19.7734 5.08974 18.8359 5.26923C18.4453 4.88462 17.9961 4.57692 17.4883 4.34615C16.9805 4.11538 16.4271 4 15.8281 4C15.099 4 14.4219 4.17949 13.7969 4.53846C13.1719 4.89744 12.6771 5.39103 12.3125 6.01923C11.9479 6.64744 11.7656 7.32051 11.7656 8.03846C11.7656 8.34615 11.7917 8.65385 11.8438 8.96154C10.1771 8.88462 8.60807 8.47436 7.13672 7.73077C5.66536 6.98718 4.42188 5.98718 3.40625 4.73077C3.01562 5.3718 2.82031 6.04487 2.82031 6.75C2.82031 7.45513 2.98958 8.10256 3.32812 8.69231C3.66667 9.28205 4.10938 9.76923 4.65625 10.1538C4.00521 10.1282 3.39323 9.94872 2.82031 9.61538V9.69231C2.82031 10.641 3.13281 11.4872 3.75781 12.2308C4.38281 12.9744 5.16406 13.4487 6.10156 13.6538C5.73698 13.7308 5.3724 13.7692 5.00781 13.7692C4.77344 13.7692 4.52604 13.7564 4.26562 13.7308C4.52604 14.5256 5.0013 15.1859 5.69141 15.7115C6.38151 16.2372 7.18229 16.5 8.09375 16.5C6.58333 17.6538 4.8776 18.2308 2.97656 18.2308C2.61198 18.2308 2.28646 18.2179 2 18.1923C3.90104 19.3974 5.9974 20 8.28906 20Z" fill="#C9C6C2"/>
</svg>
